<?xml version="1.0" encoding="iso-8859-1"?>

<!DOCTYPE svg PUBLIC "-//W3C//DTD SVG 1.1//EN" "http://www.w3.org/Graphics/SVG/1.1/DTD/svg11.dtd">
<svg version="1.1" id="Layer_1" xmlns="http://www.w3.org/2000/svg" xmlns:xlink="http://www.w3.org/1999/xlink" x="0px" y="0px"
	 width="67.816px" height="44.051px" viewBox="0 0 67.816 44.051" style="enable-background:new 0 0 67.816 44.051;"
	 xml:space="preserve">
<g>
	<path d="M30.782,33.77l-2.637,6.281l-0.894,2.132c-0.286,0.687,0.031,1.471,0.714,1.762c0.168,0.073,0.348,0.108,0.521,0.108
		c0.521,0,1.018-0.307,1.23-0.824l2.519-5.996l-0.724-1.725L30.782,33.77z"/>
	<path d="M66.596,12.206c-7.073,1.572-12.549-8.801-19.03-11.641c-0.234-0.108-0.479-0.138-0.725-0.11
		c-0.129-0.15-0.288-0.266-0.476-0.348c-0.682-0.291-1.468,0.033-1.754,0.719L33.907,26.325L23.202,0.826
		c-0.285-0.686-1.071-1.01-1.753-0.719c-0.187,0.082-0.348,0.198-0.478,0.348c-0.245-0.028-0.491,0.002-0.724,0.11
		C13.765,3.405,8.29,13.778,1.218,12.206c-1.052-0.246-1.525,0.435-1.008,1.882c1.833,5.042,3.618,9.708,5.363,14.092
		c0.49,1.252,1.696,2.091,2.659,1.646c5.534-2.418,10.334-10.327,16.014-11.615c0.979-0.226,1.982-0.253,3.022-0.023
		c0.066,0.016,0.129,0.026,0.187,0.035c0.054,0.009,0.104,0.009,0.152,0.009l4.846,11.551l-0.071,0.176l0.729,1.73l0.728,1.73
		l0.071-0.176l4.189,9.984c0.214,0.516,0.711,0.824,1.231,0.824c0.173,0,0.353-0.035,0.521-0.108c0.683-0.292,1-1.075,0.715-1.762
		l-5.204-12.396v-0.004l4.846-11.551c0.107,0,0.218-0.014,0.34-0.044c7.072-1.573,12.552,8.8,19.035,11.638
		c0.958,0.444,2.168-0.395,2.663-1.646c1.744-4.385,3.524-9.05,5.359-14.092C68.124,12.641,67.649,11.96,66.596,12.206z"/>
</g>
</svg>
