<svg id="visual" viewBox="0 0 900 600" width="900" height="600" xmlns="http://www.w3.org/2000/svg" xmlns:xlink="http://www.w3.org/1999/xlink" version="1.1"><path d="M0 351L129 449L257 377L386 445L514 379L643 408L771 373L900 379L900 601L771 601L643 601L514 601L386 601L257 601L129 601L0 601Z" fill="#c65900"></path><path d="M0 411L129 475L257 439L386 393L514 441L643 451L771 452L900 448L900 601L771 601L643 601L514 601L386 601L257 601L129 601L0 601Z" fill="#b74801"></path><path d="M0 478L129 509L257 458L386 459L514 496L643 442L771 455L900 503L900 601L771 601L643 601L514 601L386 601L257 601L129 601L0 601Z" fill="#a73802"></path><path d="M0 499L129 531L257 502L386 506L514 541L643 482L771 516L900 490L900 601L771 601L643 601L514 601L386 601L257 601L129 601L0 601Z" fill="#972702"></path><path d="M0 539L129 564L257 569L386 532L514 526L643 570L771 557L900 546L900 601L771 601L643 601L514 601L386 601L257 601L129 601L0 601Z" fill="#871400"></path></svg>