<svg id="visual" viewBox="0 0 900 600" width="900" height="600" xmlns="http://www.w3.org/2000/svg" xmlns:xlink="http://www.w3.org/1999/xlink" version="1.1"><path d="M0 413L129 405L257 371L386 416L514 383L643 425L771 396L900 390L900 601L771 601L643 601L514 601L386 601L257 601L129 601L0 601Z" fill="#5755a3"></path><path d="M0 450L129 442L257 436L386 463L514 417L643 419L771 393L900 420L900 601L771 601L643 601L514 601L386 601L257 601L129 601L0 601Z" fill="#48468f"></path><path d="M0 478L129 453L257 494L386 492L514 490L643 470L771 505L900 456L900 601L771 601L643 601L514 601L386 601L257 601L129 601L0 601Z" fill="#3a387c"></path><path d="M0 499L129 500L257 542L386 537L514 504L643 483L771 541L900 512L900 601L771 601L643 601L514 601L386 601L257 601L129 601L0 601Z" fill="#2c2a6a"></path><path d="M0 545L129 545L257 570L386 554L514 557L643 528L771 572L900 553L900 601L771 601L643 601L514 601L386 601L257 601L129 601L0 601Z" fill="#1e1d58"></path></svg>