<svg id="visual" viewBox="0 0 960 200" width="960" height="200" xmlns="http://www.w3.org/2000/svg" xmlns:xlink="http://www.w3.org/1999/xlink" version="1.1"><path d="M0 25L14.5 24.3C29 23.7 58 22.3 87.2 23.7C116.3 25 145.7 29 174.8 33.3C204 37.7 233 42.3 262 40.3C291 38.3 320 29.7 349 30.7C378 31.7 407 42.3 436.2 43.7C465.3 45 494.7 37 523.8 35.3C553 33.7 582 38.3 611 40.7C640 43 669 43 698 44.3C727 45.7 756 48.3 785.2 45.7C814.3 43 843.7 35 872.8 31C902 27 931 27 945.5 27L960 27L960 0L945.5 0C931 0 902 0 872.8 0C843.7 0 814.3 0 785.2 0C756 0 727 0 698 0C669 0 640 0 611 0C582 0 553 0 523.8 0C494.7 0 465.3 0 436.2 0C407 0 378 0 349 0C320 0 291 0 262 0C233 0 204 0 174.8 0C145.7 0 116.3 0 87.2 0C58 0 29 0 14.5 0L0 0Z" fill="#000000"></path><path d="M0 81L14.5 81.7C29 82.3 58 83.7 87.2 88.3C116.3 93 145.7 101 174.8 106C204 111 233 113 262 111.7C291 110.3 320 105.7 349 104C378 102.3 407 103.7 436.2 97.3C465.3 91 494.7 77 523.8 76C553 75 582 87 611 88.3C640 89.7 669 80.3 698 80C727 79.7 756 88.3 785.2 86.7C814.3 85 843.7 73 872.8 66.3C902 59.7 931 58.3 945.5 57.7L960 57L960 25L945.5 25C931 25 902 25 872.8 29C843.7 33 814.3 41 785.2 43.7C756 46.3 727 43.7 698 42.3C669 41 640 41 611 38.7C582 36.3 553 31.7 523.8 33.3C494.7 35 465.3 43 436.2 41.7C407 40.3 378 29.7 349 28.7C320 27.7 291 36.3 262 38.3C233 40.3 204 35.7 174.8 31.3C145.7 27 116.3 23 87.2 21.7C58 20.3 29 21.7 14.5 22.3L0 23Z" fill="#0d0268"></path><path d="M0 99L14.5 99.7C29 100.3 58 101.7 87.2 108.3C116.3 115 145.7 127 174.8 132.3C204 137.7 233 136.3 262 134.7C291 133 320 131 349 131.3C378 131.7 407 134.3 436.2 128.7C465.3 123 494.7 109 523.8 105C553 101 582 107 611 105.3C640 103.7 669 94.3 698 93.7C727 93 756 101 785.2 100C814.3 99 843.7 89 872.8 85.3C902 81.7 931 84.3 945.5 85.7L960 87L960 55L945.5 55.7C931 56.3 902 57.7 872.8 64.3C843.7 71 814.3 83 785.2 84.7C756 86.3 727 77.7 698 78C669 78.3 640 87.7 611 86.3C582 85 553 73 523.8 74C494.7 75 465.3 89 436.2 95.3C407 101.7 378 100.3 349 102C320 103.7 291 108.3 262 109.7C233 111 204 109 174.8 104C145.7 99 116.3 91 87.2 86.3C58 81.7 29 80.3 14.5 79.7L0 79Z" fill="#321a82"></path><path d="M0 119L14.5 120.7C29 122.3 58 125.7 87.2 132.3C116.3 139 145.7 149 174.8 156.7C204 164.3 233 169.7 262 167C291 164.3 320 153.7 349 150C378 146.3 407 149.7 436.2 148.3C465.3 147 494.7 141 523.8 139C553 137 582 139 611 137C640 135 669 129 698 128.3C727 127.7 756 132.3 785.2 130.3C814.3 128.3 843.7 119.7 872.8 116.3C902 113 931 115 945.5 116L960 117L960 85L945.5 83.7C931 82.3 902 79.7 872.8 83.3C843.7 87 814.3 97 785.2 98C756 99 727 91 698 91.7C669 92.3 640 101.7 611 103.3C582 105 553 99 523.8 103C494.7 107 465.3 121 436.2 126.7C407 132.3 378 129.7 349 129.3C320 129 291 131 262 132.7C233 134.3 204 135.7 174.8 130.3C145.7 125 116.3 113 87.2 106.3C58 99.7 29 98.3 14.5 97.7L0 97Z" fill="#4f329d"></path><path d="M0 201L14.5 201C29 201 58 201 87.2 201C116.3 201 145.7 201 174.8 201C204 201 233 201 262 201C291 201 320 201 349 201C378 201 407 201 436.2 201C465.3 201 494.7 201 523.8 201C553 201 582 201 611 201C640 201 669 201 698 201C727 201 756 201 785.2 201C814.3 201 843.7 201 872.8 201C902 201 931 201 945.5 201L960 201L960 115L945.5 114C931 113 902 111 872.8 114.3C843.7 117.7 814.3 126.3 785.2 128.3C756 130.3 727 125.7 698 126.3C669 127 640 133 611 135C582 137 553 135 523.8 137C494.7 139 465.3 145 436.2 146.3C407 147.7 378 144.3 349 148C320 151.7 291 162.3 262 165C233 167.7 204 162.3 174.8 154.7C145.7 147 116.3 137 87.2 130.3C58 123.7 29 120.3 14.5 118.7L0 117Z" fill="#6b4ab9"></path></svg>