<svg id="visual" viewBox="0 0 900 600" width="900" height="600" xmlns="http://www.w3.org/2000/svg" xmlns:xlink="http://www.w3.org/1999/xlink" version="1.1"><path d="M0 25L13.7 32C27.3 39 54.7 53 82 54C109.3 55 136.7 43 163.8 41C191 39 218 47 245.2 50C272.3 53 299.7 51 327 49C354.3 47 381.7 45 409 45C436.3 45 463.7 47 491 44C518.3 41 545.7 33 573 35C600.3 37 627.7 49 654.8 56C682 63 709 65 736.2 59C763.3 53 790.7 39 818 38C845.3 37 872.7 49 886.3 55L900 61L900 0L886.3 0C872.7 0 845.3 0 818 0C790.7 0 763.3 0 736.2 0C709 0 682 0 654.8 0C627.7 0 600.3 0 573 0C545.7 0 518.3 0 491 0C463.7 0 436.3 0 409 0C381.7 0 354.3 0 327 0C299.7 0 272.3 0 245.2 0C218 0 191 0 163.8 0C136.7 0 109.3 0 82 0C54.7 0 27.3 0 13.7 0L0 0Z" fill="#110c28"></path><path d="M0 49L13.7 56C27.3 63 54.7 77 82 79C109.3 81 136.7 71 163.8 71C191 71 218 81 245.2 87C272.3 93 299.7 95 327 94C354.3 93 381.7 89 409 85C436.3 81 463.7 77 491 70C518.3 63 545.7 53 573 54C600.3 55 627.7 67 654.8 81C682 95 709 111 736.2 111C763.3 111 790.7 95 818 93C845.3 91 872.7 103 886.3 109L900 115L900 59L886.3 53C872.7 47 845.3 35 818 36C790.7 37 763.3 51 736.2 57C709 63 682 61 654.8 54C627.7 47 600.3 35 573 33C545.7 31 518.3 39 491 42C463.7 45 436.3 43 409 43C381.7 43 354.3 45 327 47C299.7 49 272.3 51 245.2 48C218 45 191 37 163.8 39C136.7 41 109.3 53 82 52C54.7 51 27.3 37 13.7 30L0 23Z" fill="#181538"></path><path d="M0 79L13.7 86C27.3 93 54.7 107 82 108C109.3 109 136.7 97 163.8 100C191 103 218 121 245.2 130C272.3 139 299.7 139 327 137C354.3 135 381.7 131 409 125C436.3 119 463.7 111 491 105C518.3 99 545.7 95 573 95C600.3 95 627.7 99 654.8 108C682 117 709 131 736.2 134C763.3 137 790.7 129 818 132C845.3 135 872.7 149 886.3 156L900 163L900 113L886.3 107C872.7 101 845.3 89 818 91C790.7 93 763.3 109 736.2 109C709 109 682 93 654.8 79C627.7 65 600.3 53 573 52C545.7 51 518.3 61 491 68C463.7 75 436.3 79 409 83C381.7 87 354.3 91 327 92C299.7 93 272.3 91 245.2 85C218 79 191 69 163.8 69C136.7 69 109.3 79 82 77C54.7 75 27.3 61 13.7 54L0 47Z" fill="#221d49"></path><path d="M0 193L13.7 196C27.3 199 54.7 205 82 200C109.3 195 136.7 179 163.8 185C191 191 218 219 245.2 229C272.3 239 299.7 231 327 220C354.3 209 381.7 195 409 183C436.3 171 463.7 161 491 155C518.3 149 545.7 147 573 148C600.3 149 627.7 153 654.8 172C682 191 709 225 736.2 234C763.3 243 790.7 227 818 223C845.3 219 872.7 227 886.3 231L900 235L900 161L886.3 154C872.7 147 845.3 133 818 130C790.7 127 763.3 135 736.2 132C709 129 682 115 654.8 106C627.7 97 600.3 93 573 93C545.7 93 518.3 97 491 103C463.7 109 436.3 117 409 123C381.7 129 354.3 133 327 135C299.7 137 272.3 137 245.2 128C218 119 191 101 163.8 98C136.7 95 109.3 107 82 106C54.7 105 27.3 91 13.7 84L0 77Z" fill="#2c245b"></path><path d="M0 217L13.7 222C27.3 227 54.7 237 82 236C109.3 235 136.7 223 163.8 229C191 235 218 259 245.2 266C272.3 273 299.7 263 327 250C354.3 237 381.7 221 409 210C436.3 199 463.7 193 491 188C518.3 183 545.7 179 573 177C600.3 175 627.7 175 654.8 196C682 217 709 259 736.2 268C763.3 277 790.7 253 818 246C845.3 239 872.7 249 886.3 254L900 259L900 233L886.3 229C872.7 225 845.3 217 818 221C790.7 225 763.3 241 736.2 232C709 223 682 189 654.8 170C627.7 151 600.3 147 573 146C545.7 145 518.3 147 491 153C463.7 159 436.3 169 409 181C381.7 193 354.3 207 327 218C299.7 229 272.3 237 245.2 227C218 217 191 189 163.8 183C136.7 177 109.3 193 82 198C54.7 203 27.3 197 13.7 194L0 191Z" fill="#372c6d"></path><path d="M0 331L13.7 349C27.3 367 54.7 403 82 405C109.3 407 136.7 375 163.8 365C191 355 218 367 245.2 366C272.3 365 299.7 351 327 345C354.3 339 381.7 341 409 357C436.3 373 463.7 403 491 399C518.3 395 545.7 357 573 332C600.3 307 627.7 295 654.8 304C682 313 709 343 736.2 356C763.3 369 790.7 365 818 371C845.3 377 872.7 393 886.3 401L900 409L900 257L886.3 252C872.7 247 845.3 237 818 244C790.7 251 763.3 275 736.2 266C709 257 682 215 654.8 194C627.7 173 600.3 173 573 175C545.7 177 518.3 181 491 186C463.7 191 436.3 197 409 208C381.7 219 354.3 235 327 248C299.7 261 272.3 271 245.2 264C218 257 191 233 163.8 227C136.7 221 109.3 233 82 234C54.7 235 27.3 225 13.7 220L0 215Z" fill="#433480"></path><path d="M0 373L13.7 391C27.3 409 54.7 445 82 448C109.3 451 136.7 421 163.8 414C191 407 218 423 245.2 424C272.3 425 299.7 411 327 405C354.3 399 381.7 401 409 412C436.3 423 463.7 443 491 439C518.3 435 545.7 407 573 382C600.3 357 627.7 335 654.8 338C682 341 709 369 736.2 382C763.3 395 790.7 393 818 404C845.3 415 872.7 439 886.3 451L900 463L900 407L886.3 399C872.7 391 845.3 375 818 369C790.7 363 763.3 367 736.2 354C709 341 682 311 654.8 302C627.7 293 600.3 305 573 330C545.7 355 518.3 393 491 397C463.7 401 436.3 371 409 355C381.7 339 354.3 337 327 343C299.7 349 272.3 363 245.2 364C218 365 191 353 163.8 363C136.7 373 109.3 405 82 403C54.7 401 27.3 365 13.7 347L0 329Z" fill="#4f3b92"></path><path d="M0 451L13.7 466C27.3 481 54.7 511 82 515C109.3 519 136.7 497 163.8 489C191 481 218 487 245.2 487C272.3 487 299.7 481 327 475C354.3 469 381.7 463 409 471C436.3 479 463.7 501 491 493C518.3 485 545.7 447 573 424C600.3 401 627.7 393 654.8 400C682 407 709 429 736.2 443C763.3 457 790.7 463 818 471C845.3 479 872.7 489 886.3 494L900 499L900 461L886.3 449C872.7 437 845.3 413 818 402C790.7 391 763.3 393 736.2 380C709 367 682 339 654.8 336C627.7 333 600.3 355 573 380C545.7 405 518.3 433 491 437C463.7 441 436.3 421 409 410C381.7 399 354.3 397 327 403C299.7 409 272.3 423 245.2 422C218 421 191 405 163.8 412C136.7 419 109.3 449 82 446C54.7 443 27.3 407 13.7 389L0 371Z" fill="#5d43a6"></path><path d="M0 601L13.7 601C27.3 601 54.7 601 82 601C109.3 601 136.7 601 163.8 601C191 601 218 601 245.2 601C272.3 601 299.7 601 327 601C354.3 601 381.7 601 409 601C436.3 601 463.7 601 491 601C518.3 601 545.7 601 573 601C600.3 601 627.7 601 654.8 601C682 601 709 601 736.2 601C763.3 601 790.7 601 818 601C845.3 601 872.7 601 886.3 601L900 601L900 497L886.3 492C872.7 487 845.3 477 818 469C790.7 461 763.3 455 736.2 441C709 427 682 405 654.8 398C627.7 391 600.3 399 573 422C545.7 445 518.3 483 491 491C463.7 499 436.3 477 409 469C381.7 461 354.3 467 327 473C299.7 479 272.3 485 245.2 485C218 485 191 479 163.8 487C136.7 495 109.3 517 82 513C54.7 509 27.3 479 13.7 464L0 449Z" fill="#6b4ab9"></path></svg>