<svg id="visual" viewBox="0 0 960 200" width="960" height="200" xmlns="http://www.w3.org/2000/svg" xmlns:xlink="http://www.w3.org/1999/xlink" version="1.1"><path d="M0 29L87 15L175 27L262 21L349 35L436 23L524 19L611 15L698 23L785 25L873 31L960 37L960 0L873 0L785 0L698 0L611 0L524 0L436 0L349 0L262 0L175 0L87 0L0 0Z" fill="#000000"></path><path d="M0 79L87 63L175 69L262 65L349 69L436 63L524 75L611 59L698 75L785 45L873 75L960 81L960 35L873 29L785 23L698 21L611 13L524 17L436 21L349 33L262 19L175 25L87 13L0 27Z" fill="#0d0268"></path><path d="M0 137L87 109L175 101L262 149L349 129L436 121L524 127L611 125L698 117L785 85L873 105L960 119L960 79L873 73L785 43L698 73L611 57L524 73L436 61L349 67L262 63L175 67L87 61L0 77Z" fill="#321a82"></path><path d="M0 161L87 143L175 135L262 163L349 161L436 151L524 151L611 151L698 135L785 99L873 121L960 145L960 117L873 103L785 83L698 115L611 123L524 125L436 119L349 127L262 147L175 99L87 107L0 135Z" fill="#4f329d"></path><path d="M0 201L87 201L175 201L262 201L349 201L436 201L524 201L611 201L698 201L785 201L873 201L960 201L960 143L873 119L785 97L698 133L611 149L524 149L436 149L349 159L262 161L175 133L87 141L0 159Z" fill="#6b4ab9"></path></svg>